<?xml version="1.0" encoding="UTF-8"?>
<svg id="Layer_2" data-name="Layer 2" xmlns="http://www.w3.org/2000/svg" viewBox="0 0 838.41 717.64">
  <g id="Layer_1-2" data-name="Layer 1">
    <g>
      <path d="M723.89,0c16.1,0,31.08,2.94,45,8.74,13.86,5.81,25.96,13.81,36.2,23.94,10.29,10.13,18.39,22.18,24.36,36.04,5.97,13.86,8.96,28.9,8.96,45v603.92h-59.98V113.72c0-7.78-1.39-14.93-4.16-21.49-2.77-6.5-6.66-12.21-11.62-17.06-5.01-4.85-10.88-8.64-17.54-11.46-6.66-2.77-13.7-4.16-21.22-4.16-6.4,0-12.37,1.12-17.91,3.36-5.54,2.18-10.77,5.06-15.62,8.53-4.85,3.47-9.44,7.36-13.75,11.68-4.32,4.27-8.53,8.64-12.69,13.12l-5.01,4.96v325.74l-22.5-1.28L291.95,81.2l-1.23-22.44h325.69l4.21-4.21c7.73-7.99,15.25-15.41,22.44-22.07,7.25-6.66,14.71-12.42,22.5-17.27,7.78-4.85,16.31-8.58,25.64-11.25,9.28-2.61,20.21-3.95,32.68-3.95"/>
      <polygon points="290.73 58.73 658.9 426.91 637.69 448.18 269.88 79.95 290.73 58.73"/>
      <path d="M25.86,473.57c-3.09,3.04-6.56,4.58-10.45,4.58s-7.41-1.44-10.61-4.37c-3.2-2.93-4.8-6.45-4.8-10.61s1.55-7.78,4.58-10.88L274.08,182.86c2.77-2.77,6.24-4.16,10.4-4.16s7.73,1.44,10.61,4.37c2.93,2.88,4.37,6.45,4.37,10.61s-1.39,7.62-4.16,10.39L25.86,473.57ZM25.86,593.52c-2.83,2.77-6.29,4.16-10.45,4.16-4.42,0-8.1-1.39-11.04-4.16-2.88-2.77-4.37-6.4-4.37-10.82,0-3.89,1.55-7.36,4.58-10.4L334.06,242.83c2.77-2.77,6.24-4.16,10.4-4.16s7.73,1.44,10.61,4.37c2.93,2.88,4.37,6.45,4.37,10.61s-1.39,7.62-4.16,10.39L25.86,593.52ZM394.03,302.81c2.77-2.77,6.24-4.16,10.4-4.16s7.62,1.44,10.4,4.37c2.77,2.88,4.21,6.45,4.21,10.61s-1.44,7.62-4.21,10.39L25.86,713.05c-3.09,3.04-6.56,4.58-10.45,4.58s-7.41-1.44-10.61-4.37c-3.2-2.93-4.8-6.45-4.8-10.61s1.55-7.78,4.58-10.82l389.45-389.02ZM453.58,362.36c2.77-2.77,6.24-4.16,10.4-4.16s7.73,1.44,10.66,4.37c2.88,2.93,4.37,6.45,4.37,10.61s-1.44,7.62-4.21,10.4l-329.42,329.47c-3.09,3.04-6.56,4.58-10.45,4.58s-7.36-1.55-10.4-4.58c-3.04-3.04-4.58-6.5-4.58-10.39,0-4.16,1.55-7.78,4.58-10.82l329.04-329.47ZM513.56,422.33c2.77-2.77,6.24-4.16,10.4-4.16s7.73,1.44,10.66,4.37c2.88,2.93,4.37,6.45,4.37,10.61s-1.44,7.62-4.21,10.4l-269.44,269.49c-2.77,2.77-6.4,4.16-10.82,4.16-3.95,0-7.41-1.44-10.45-4.37-3.04-2.88-4.59-6.29-4.59-10.18,0-4.16,1.55-7.78,4.59-10.82l269.49-269.5Z"/>
    </g>
  </g>
</svg>