<?xml version="1.0" encoding="UTF-8"?>
<svg id="Layer_2" data-name="Layer 2" xmlns="http://www.w3.org/2000/svg" viewBox="0 0 828.56 605.08">
  <defs>
    <style>
      .cls-1 {
        fill: #231f20;
      }
    </style>
  </defs>
  <g id="Layer_1-2" data-name="Layer 1">
    <g>
      <path class="cls-1" d="M132.75,139.48c0-9.39,3.76-21.03,17.47-30.59,19.54-13.63,55.95-20.1,111.95-20.2h0c.14,0,.28,0,.42,0,.14,0,.28,0,.42,0h0c56,.1,92.41,6.57,111.95,20.2,13.7,9.56,17.47,21.2,17.47,30.59v17.7c7.02-.13,14.12-.22,21.33-.26,7.21.04,14.31.13,21.33.26v-17.7c0-9.39,3.76-21.03,17.47-30.59,19.54-13.63,55.95-20.1,111.95-20.2h0c.14,0,.28,0,.42,0,.14,0,.28,0,.42,0h0c56,.1,92.41,6.57,111.95,20.2,13.7,9.56,17.47,21.2,17.47,30.59v51.5c29.28,9.18,49.63,19.34,59.9,29.33V41.28c0-22.8-19.62-41.28-43.83-41.28H116.68c-24.21,0-43.83,18.48-43.83,41.28v179.03c10.27-9.99,30.62-20.16,59.9-29.33v-51.5Z"/>
      <path class="cls-1" d="M823.69,383.74c-16.12-43.54-42.9-111.06-66.34-137.72-.65-.74-1.38-1.49-2.15-2.24-10.27-9.99-30.62-20.16-59.9-29.33-56.33-17.66-145.68-31.66-259.69-33.8-7.02-.13-14.12-.22-21.33-.26-7.21.04-14.31.13-21.33.26-114.01,2.14-203.35,16.14-259.69,33.8-29.28,9.18-49.63,19.34-59.9,29.33-.77.75-1.5,1.49-2.15,2.24-23.44,26.66-50.22,94.18-66.34,137.72-1.23,3.33-4.88,11.16-4.88,20.59v123.1c0,3.99,3.44,7.23,7.67,7.23h40.92c4.24,0,7.67-3.24,7.67-7.23v-94.97s-1.79-13.83,7.99-21.25c1.85-1.4,5.93-3.37,9.1-4.17,14.23-3.58,37.35-2.71,37.35-2.71h607.12s23.13-.86,37.35,2.71c3.17.8,5.9,1.81,7.83,3.11,11.49,7.7,9.26,22.31,9.26,22.31v94.97c0,3.99,3.44,7.23,7.67,7.23h40.92c4.24,0,7.67-3.24,7.67-7.23v-123.1c0-9.42-3.64-17.26-4.88-20.59Z"/>
      <path class="cls-1" d="M707.41,425.08H121.15c-35.57,0-42.22,6.07-43.17,33.82v137.41c0,4.84,4.17,8.77,9.31,8.77h49.66c5.14,0,9.31-3.93,9.31-8.77v-60.84h536.02v60.84c0,4.84,4.17,8.77,9.31,8.77h49.66c5.14,0,9.31-3.93,9.31-8.77v-137.41c-.95-27.76-7.6-33.82-43.17-33.82Z"/>
    </g>
  </g>
</svg>