<?xml version="1.0" encoding="UTF-8"?>
<svg id="Layer_2" xmlns="http://www.w3.org/2000/svg" version="1.1" viewBox="0 0 3130.8 2031.2">
  <!-- Generator: Adobe Illustrator 29.2.0, SVG Export Plug-In . SVG Version: 2.1.0 Build 108)  -->
  <g id="_ò__1">
    <g>
      <g>
        <path d="M1886.6,632.8c-120-132.2-299.6-197.3-477-154.8-100.9,24.2-186.6,79.7-250.5,154.8h727.5Z"/>
        <path d="M269.1,1209.9l-65.4-272.8c11.4-.4,22.8-2,34.3-4.7,10.9-2.6,21.2-6.2,31.1-10.6v-289h386.8l1798.8-431.3c.2,10.9,1.6,22,4.2,33,20.7,86.4,110.5,138.9,200.6,117.3,11.5-2.8,22.4-6.6,32.7-11.4l70.1,292.4h137L2747.7,0,0,658.8l269.1,1122.5v-571.4Z"/>
      </g>
      <g>
        <g>
          <path d="M305.1,670.8v1360.4h2825.8V670.8H305.1ZM2963.1,1709.6c-92.6,0-167.7,72-167.7,160.8s1.2,22.4,3.6,33.1H636.9c2.3-10.7,3.6-21.7,3.6-33.1,0-88.8-75.1-160.8-167.7-160.8s-23.4,1.2-34.5,3.4v-724c11.1,2.2,22.7,3.4,34.5,3.4,92.6,0,167.7-72,167.7-160.8s-1.2-22.4-3.6-33.1h2162c-2.3,10.7-3.6,21.7-3.6,33.1,0,88.8,75.1,160.8,167.7,160.8s23.4-1.2,34.5-3.4v724c-11.1-2.2-22.7-3.4-34.5-3.4h0Z"/>
          <path d="M1717.9,823.7c-273.5,0-495.1,236.1-495.1,527.3s221.7,527.3,495.1,527.3,495.1-236.1,495.1-527.3-221.7-527.3-495.1-527.3h0ZM1914.1,1656.7c-55.4,19.6-129,17.9-211.9-8-26-8.1-62.9-17.2-109.1-6.6-39.1,9-73.4,38.2-73.7,38.3,0,0-10.6-26.6-25.2-57.8-12.9-27.6-23.5-46.8-23.5-46.8,84.9-54.2,105.2-114.1,100.1-176.7h-100.1v-96.6h79.1c-3.1-12-6.3-25-9.5-39-19.1-83.4,4.5-137.1,27.7-167.5,17.3-22.7,40.3-40.8,68.2-53.7,27.8-12.9,54.7-18.5,71.6-20,30.9-2.7,64.7.5,90.6,7.9,24.1,6.8,45.5,17,64.2,32.1,62.3,50.2,71.8,122.9,72.5,131.4,0,0-21.3.5-60.1,5.2-36.5,4.4-57.5,8.3-57.5,8.3,0-.2-1.4-25.7-16.7-47.6-11-15.8-30.6-40.9-83-36.4-26.1,2.3-46.7,15.3-61.5,34.7-14.4,18.8-17.4,46.8-9.1,83,5.2,22.9,10.7,43.3,15.7,61.5h143.7v96.6h-123.5c3.1,42.4-5,85.7-49.1,152.4,34.7-1.8,65.8,1.6,93,10,65.1,20,107.7,7.4,144.2-5.3,30.3-10.6,41.8-17.2,41.8-17.2,0,0,13.4,29.1,25.3,51.9,12.9,24.7,24.4,44,24.4,44-2.2,1.1-14.7,9.6-48.7,21.7h0Z"/>
          <circle cx="865.3" cy="1340" r="115.5" transform="translate(-694 1004.3) rotate(-45)"/>
        </g>
        <circle cx="2570.5" cy="1340" r="115.5"/>
      </g>
    </g>
  </g>
</svg>