<?xml version="1.0" encoding="UTF-8"?>
<svg id="Layer_2" xmlns="http://www.w3.org/2000/svg" version="1.1" viewBox="0 0 50 50">
  <!-- Generator: Adobe Illustrator 29.2.0, SVG Export Plug-In . SVG Version: 2.1.0 Build 108)  -->
  <g id="icons">
    <g>
      <circle cx="6" cy="46" r="3"/>
      <circle cx="13" cy="35" r="2"/>
      <circle cx="4.5" cy="36.5" r="1.5"/>
      <circle cx="1.5" cy="40.5" r="1.5"/>
      <circle cx="9" cy="39.2" r="2"/>
      <path d="M18,44c-.4,0-.8,0-1.1.2,0-.2.1-.5.1-.7,0-1.4-1.1-2.5-2.5-2.5s-2.5,1.1-2.5,2.5,1.1,2.5,2.5,2.5.5,0,.7-.1c-.1.3-.2.7-.2,1.1,0,1.7,1.3,3,3,3s3-1.3,3-3-1.3-3-3-3Z"/>
      <circle cx="19.5" cy="36.5" r="2.5"/>
      <path d="M49.9,48.1l-8.4-21.8,5.6-23.8c.2-1.1-.4-2.2-1.5-2.4-1.1-.2-2.2.4-2.4,1.5l-5.6,23.8-17.3,15.9c-.2.2-.3.5-.3.8s.1.6.4.8c.2.2,4.5,3.5,11,5.6h0c.9.3,1.8.5,2.7.8,3.1.7,6,.9,8.5.9,3.8,0,6.5-.6,6.6-.6.3,0,.5-.2.7-.5.1-.3.2-.6,0-.8h0ZM43.3,48l-.8-7.6c0-.5-.5-.9-1.1-.9-.5,0-1,.5-.9,1.1l.8,7.4c-2,0-4.4-.3-6.8-.9-.5-.1-1-.3-1.5-.4l2.7-7.5c.2-.5,0-1.1-.6-1.3-.5-.2-1.1,0-1.3.6l-2.7,7.6c-1.2-.4-2.3-.9-3.4-1.4l4.1-6.2c.3-.5.2-1.1-.3-1.4-.5-.3-1.1-.2-1.4.3l-4.2,6.4c-1.5-.8-2.6-1.5-3.3-2l10.4-9.6,9.6,2.2,5.1,13.1c-1,.1-2.4.3-4.3.3h0Z"/>
    </g>
  </g>
</svg>