<?xml version="1.0" encoding="UTF-8"?>
<svg id="Layer_2" data-name="Layer 2" xmlns="http://www.w3.org/2000/svg" viewBox="0 0 1525.36 1469.67">
  <g id="Layer_1-2" data-name="Layer 1">
    <g>
      <path d="M1078.13,0H31.64C14.17,0,0,14.17,0,31.64v1406.08c0,17.48,14.17,31.64,31.64,31.64h1046.49c17.48,0,31.64-14.17,31.64-31.64V31.64c0-17.48-14.17-31.64-31.64-31.64ZM1063.27,1422.86H46.5V46.5h1016.77v1376.37Z"/>
      <path d="M323.67,227.03h462.42c12.84,0,23.25-10.41,23.25-23.25s-10.41-23.25-23.25-23.25h-462.42c-12.84,0-23.25,10.41-23.25,23.25s10.41,23.25,23.25,23.25Z"/>
      <path d="M786.1,1242.33h-462.42c-12.84,0-23.25,10.41-23.25,23.25s10.41,23.25,23.25,23.25h462.42c12.84,0,23.25-10.41,23.25-23.25s-10.41-23.25-23.25-23.25Z"/>
      <path d="M172.35,532.85h765.08c12.84,0,23.25-10.41,23.25-23.25s-10.41-23.25-23.25-23.25H172.35c-12.84,0-23.25,10.41-23.25,23.25s10.41,23.25,23.25,23.25Z"/>
      <path d="M172.35,682.9h765.08c12.84,0,23.25-10.41,23.25-23.25s-10.41-23.25-23.25-23.25H172.35c-12.84,0-23.25,10.41-23.25,23.25s10.41,23.25,23.25,23.25Z"/>
      <path d="M172.35,832.96h765.08c12.84,0,23.25-10.41,23.25-23.25s-10.41-23.25-23.25-23.25H172.35c-12.84,0-23.25,10.41-23.25,23.25s10.41,23.25,23.25,23.25Z"/>
      <path d="M172.35,983.01h765.08c12.84,0,23.25-10.41,23.25-23.25s-10.41-23.25-23.25-23.25H172.35c-12.84,0-23.25,10.41-23.25,23.25s10.41,23.25,23.25,23.25Z"/>
      <path d="M1518.46,208.16L1411.23,0l-107.22,208.16c-4.54,8.81-6.91,18.58-6.91,28.49v1165.2c0,37.46,30.37,67.83,67.83,67.83h92.59c37.46,0,67.83-30.37,67.83-67.83V236.64c0-9.91-2.37-19.68-6.91-28.49ZM1411.23,99.69l53.87,104.58h-107.73l53.87-104.58ZM1479.71,1401.84c0,12.23-9.95,22.18-22.18,22.18h-92.59c-12.23,0-22.18-9.95-22.18-22.18v-109.42h136.95v109.42ZM1479.71,1246.77h-136.95V249.92h136.95v996.85Z"/>
    </g>
  </g>
</svg>