<?xml version="1.0" encoding="UTF-8"?>
<svg id="Layer_2" xmlns="http://www.w3.org/2000/svg" version="1.1" viewBox="0 0 57.3 60.9">
  <!-- Generator: Adobe Illustrator 29.2.0, SVG Export Plug-In . SVG Version: 2.1.0 Build 108)  -->
  <g id="Layer_1-2">
    <g>
      <path d="M48.5,32.2c0,.8-.7,1.5-1.5,1.5h-14.8c.2-1,.3-2,.5-3h14.4c.8,0,1.5.7,1.5,1.5h0Z"/>
      <path d="M48.5,23.8c0,.8-.7,1.5-1.5,1.5h-14.1c-.1-1-.5-2.1-1.1-3h15.2c.8,0,1.5.7,1.5,1.5h0Z"/>
      <path d="M48.5,40.3c0,.8-.7,1.5-1.5,1.5h-17.7c.2-.4.4-.8.6-1.2.3-.6.5-1.2.7-1.7h16.3c.8,0,1.5.7,1.5,1.5h0Z"/>
      <path d="M48.5,48.5c0,.8-.7,1.5-1.5,1.5h-24.1s-.1,0-.2,0c1.1-.9,2.1-1.9,3-3h21.2c.8,0,1.5.7,1.5,1.5h0Z"/>
      <path d="M46.4,8.2c0-.3-.2-.6-.4-.8-.4-.6-1-.9-1.6-1.1-.2,0-.5,0-.8,0h-1.7v-.2C41.9,2.6,39.2,0,36,0h0c-1.7,0-3.1.7-4.2,1.7-1.1,1.1-1.8,2.5-1.8,4.2v.2h-1.7c-.2,0-.5,0-.8,0-.6.2-1.2.6-1.6,1.1-.2.2-.3.5-.4.8,0,.2,0,.4-.1.5v3.3c0,.2,0,.4.1.5.3,1.2,1.4,2,2.6,2.1h15.6c1.2,0,2.3-.9,2.7-2.1,0-.2,0-.3,0-.5v-3.3c0-.2,0-.3,0-.5h0ZM39.1,6.1h-6.4v-.2c0-1.7,1.5-3,3.1-3h.1c1.7,0,3.1,1.4,3.1,3v.2Z"/>
      <path d="M12.6,15.6c.3-3,1.8-5.2,4.4-6.7,1-.6,2.2-.8,3.8-.8h.8v3.8h-.2c-.5,0-1,0-1.4,0-1.9.1-3.6,1.7-3.8,3.6-1.2-.3-2.5-.3-3.7,0Z"/>
      <path d="M57.3,53.2c0,2-.9,4-2.4,5.4-1.5,1.5-3.4,2.3-5.5,2.3h0c-4.4,0-8.6,0-13,0h-2.9c-4.3,0-8.6,0-13,0h0c-2,0-4-.8-5.5-2.3-1.3-1.3-2.1-2.9-2.3-4.6.6.2,1.2.2,1.8.2s1.3,0,1.9-.3c0,.2.1.5.3.7.9,1.6,2.1,2.4,3.8,2.4h28.8c1.7,0,3-.8,3.8-2.4.5-.9.5-2,.5-3.1v-30.1c0-1.8,0-3.8,0-5.7,0-2-1.8-3.7-3.8-3.8-.4,0-.8,0-1.3,0h-.2v-3.8h.8c1.6,0,2.7.3,3.8.8,3,1.6,4.5,4.3,4.5,7.9v29.9c0,3.7,0,2.6,0,6.4h0Z"/>
      <path d="M15.5,51.3c-.6,0-1.2-.1-1.7-.3h0c-4.3-2-7.6-4.8-9.9-8.5-1.6-2.4-2.6-5.2-3.3-8.5h0c-.4-1.9-.6-3.8-.6-6h0v-.6c0-.4,0-.9,0-1.3,0-1.7,1-3.8,3.8-4,2.9-.2,5.4-.9,7.6-2.1h0c.5-.3,1-.6,1.5-.9h.1c0,0,.3-.3.3-.3.7-.4,1.4-.6,2.2-.6s1.6.3,2.4.8c2.1,1.5,4.2,2.4,6.5,2.8.5,0,1.1.1,1.7.2h.2c.2,0,.3,0,.5,0,.1,0,.3,0,.4,0h0c2.4.2,3.6,2.1,3.6,4h0c0,5.1-1,9.4-2.8,13.3-2.2,4.8-5.9,8.7-10.7,11.5-.6.3-1.3.5-2,.5h0ZM15.2,48c0,0,.2,0,.3,0,.2,0,.3,0,.3,0,4.3-2.5,7.4-5.8,9.4-10,1.6-3.4,2.4-7.3,2.4-11.9,0-.4-.2-.6-.6-.6-.2,0-.3,0-.5,0-.1,0-.3,0-.4,0h-.3c-.7-.1-1.3-.2-2-.3h0c-2.8-.5-5.4-1.6-7.9-3.4h0c-.3-.2-.5-.2-.8,0l-.4.3c-.6.4-1.1.7-1.8,1-2.6,1.4-5.6,2.2-9,2.5-.5,0-.7.1-.7.7h0c0,.4,0,.8,0,1.2h0v.6c0,1.9.2,3.7.5,5.4.6,2.8,1.5,5.2,2.8,7.3,2,3.1,4.8,5.5,8.5,7.2h0Z"/>
      <path d="M22.9,29.5c0-.2-.2-.4-.6-.4h0c-.1,0-.3,0-.4.1h-.1c-.1.1-.2.2-.3.2-.3.1-.6.3-.9.5-2.1,1.4-4.1,2.9-6,4.5h-.1c-.5.5-.9.8-1.4,1.2-.1,0-.3.2-.4.3-.2-.2-.4-.3-.6-.5-.6-.5-1.2-1-1.8-1.5-.4-.3-.8-.5-1.2-.6-.3-.1-.7,0-.8.2-.1.2-.2.4-.1.7,0,.2.1.5.2.8.6,1.5,1.4,2.9,2.6,4.6.4.5.9.8,1.6.8s1-.2,1.4-.6c.4-.4.8-.8,1.1-1.2,1.4-1.5,2.8-2.9,4.1-4.4.7-.8,1.4-1.6,2.1-2.4.2-.2,1.5-1.6,1.5-2.3h0Z"/>
    </g>
  </g>
</svg>