<?xml version="1.0" encoding="UTF-8"?>
<svg id="Layer_2" data-name="Layer 2" xmlns="http://www.w3.org/2000/svg" viewBox="0 0 2048 2048">
  <defs>
    <style>
      .cls-1 {
        fill: #fff;
      }

      .cls-2 {
        fill: #f2f2f2;
      }
    </style>
  </defs>
  <g id="Layer_1-2" data-name="Layer 1">
    <g>
      <rect class="cls-1" width="2048" height="2048"/>
      <circle cx="1024" cy="1024" r="864.27"/>
      <path class="cls-2" d="M1404.97,1362.27c-111.4,62.07-159.97,70.6-289.71,25.21-.31-.11-.64-.21-.96-.29-77.03-19.11-147.77-26.22-222.43-13.41-11.23,1.93-16.98-12.89-7.36-18.99,86.59-54.83,116.1-109.01,106.13-233.17-.49-6.05,4.27-11.24,10.33-11.24h199.61c5.73,0,10.38-4.65,10.38-10.38v-196.13c0-5.73-4.65-10.38-10.38-10.38h-282.42c-3.29,0-6.4-1.54-8.34-4.2-211.18-288.76,275.86-518.42,315.32-131.65.54,5.3,4.99,9.34,10.31,9.34h215.47c5.73,0,10.36-4.65,10.39-10.38,2.72-610.45-1060.78-497.3-816.83,122.66,2.69,6.83-2.29,14.23-9.63,14.23h-60.49c-5.73,0-10.38,4.65-10.38,10.38v196.13c0,5.73,4.65,10.38,10.38,10.38h163.49c5.54,0,10.11,4.35,10.38,9.88,6.6,135.32-69.53,232.12-198.22,292.52-5.37,2.52-7.53,9.02-4.74,14.25l125.25,235.26c2.94,5.53,10.08,7.19,15.18,3.56,318.77-226.52,387.55,152.73,794.23-79.79,4.25-2.43,6.25-7.48,4.78-12.15l-64.82-205.7c-1.97-6.26-9.2-9.15-14.93-5.96Z"/>
    </g>
  </g>
</svg>