<?xml version="1.0" encoding="UTF-8"?>
<svg id="Layer_2" xmlns="http://www.w3.org/2000/svg" version="1.1" viewBox="0 0 432.9 406.4">
  <!-- Generator: Adobe Illustrator 29.2.0, SVG Export Plug-In . SVG Version: 2.1.0 Build 108)  -->
  <g id="Layer_5">
    <g>
      <path d="M274.9,207.1c-15.6,0-30.2,6.1-41.3,17.1l-17.1,17.1-17.1-17.1c-11-11-25.7-17.1-41.3-17.1s-30.2,6.1-41.3,17.1c-11,11-17.1,25.7-17.1,41.3s6.1,30.2,17.1,41.3l99.7,99.7,99.7-99.7c22.8-22.8,22.8-59.8,0-82.5-11-11-25.7-17.1-41.3-17.1h0Z"/>
      <path d="M426.2,200.4l-33.2-33.3V57c0-10-8.1-18.2-18.2-18.2h-47.1c-10,0-18.2,8.1-18.2,18.2v26.6L232.5,6.7c-8.9-8.9-23.3-8.9-32.2,0L6.7,200.4c-8.9,8.9-8.9,23.3,0,32.2,4.4,4.4,10.3,6.7,16.1,6.7s11.6-2.2,16.1-6.7L216.5,54.9l93.1,93.1,78.1,78.1,6.4,6.4c8.9,8.9,23.3,8.9,32.2,0,8.9-8.9,8.9-23.3,0-32.2h0Z"/>
    </g>
  </g>
</svg>