<?xml version="1.0" encoding="UTF-8"?>
<svg id="Layer_2" xmlns="http://www.w3.org/2000/svg" version="1.1" viewBox="0 0 49.3 62.1">
  <!-- Generator: Adobe Illustrator 29.2.0, SVG Export Plug-In . SVG Version: 2.1.0 Build 108)  -->
  <g id="_Õ__1">
    <g>
      <path d="M48.9,7.9c-.3-.2-.6-.3-1-.3-.1,0-13,1.8-22.4-7.2,0,0-.1,0-.2-.1,0,0-.1-.1-.2-.1,0,0-.1,0-.2,0C24.8,0,24.8,0,24.7,0s-.2,0-.2,0c0,0-.2,0-.2,0,0,0-.1,0-.2.1,0,0-.1,0-.2.1C14.5,9.3,1.6,7.6,1.4,7.6c-.4,0-.7,0-1,.3C.2,8.1,0,8.4,0,8.8v30.1C0,39.1,0,39.3.1,39.4c1.7,13.7,23.2,22.2,24.1,22.6h0c.1,0,.3,0,.4,0s.3,0,.4,0h0c1-.4,22.4-8.9,24.1-22.6,0-.2.1-.3.1-.5V8.8c0-.4-.2-.7-.4-.9h0ZM24.7,59.5c-3.2-1.3-22.2-9.8-22.2-21.8v-5.9c0-.7.6-1.3,1.3-1.3h3l2,3.1c.4.6,1.1.8,1.7.4.6-.4.8-1.2.4-1.7l-2.3-3.6c-.2-.4-.6-.6-1.1-.6h-3.7c-.5,0-.9.1-1.3.2V10.2c3.7.2,13.9,0,22.2-7.3,8.3,7.3,18.5,7.5,22.2,7.3v18.1c-.4-.1-.8-.2-1.3-.2h-3.7c-.4,0-.8.2-1,.6l-2.3,3.6c-.4.6-.2,1.3.4,1.7.6.4,1.3.2,1.7-.4l2-3.1h3c.7,0,1.3.6,1.3,1.3v5.9c0,11.9-19,20.4-22.2,21.8h0Z"/>
      <path d="M32.7,26.7h-4.9c-.4,0-.8.2-1,.6l-2,3.2-2-3.2c-.2-.4-.6-.6-1-.6h-4.9c-2.6,0-4.6,2.1-4.6,4.6v10c0,.7.6,1.2,1.2,1.2s1.2-.6,1.2-1.2v-10c0-1.2.9-2.1,2.1-2.1h4.2l2.7,4.2c.5.7,1.6.7,2.1,0l2.7-4.2h4.2c1.2,0,2.1,1,2.1,2.1v10c0,.7.6,1.2,1.2,1.2s1.2-.6,1.2-1.2v-10c0-2.5-2.1-4.6-4.6-4.6Z"/>
      <path d="M18.3,33.4c-.7,0-1.2.6-1.2,1.2v6.7c0,.7.6,1.2,1.2,1.2s1.2-.6,1.2-1.2v-6.7c0-.7-.6-1.2-1.2-1.3Z"/>
      <path d="M31.1,33.4c-.7,0-1.2.6-1.2,1.2v6.7c0,.7.6,1.2,1.2,1.2s1.3-.6,1.3-1.2v-6.7c0-.7-.6-1.2-1.3-1.3Z"/>
      <path d="M24.7,24.7c3.1,0,5.6-2.5,5.6-5.6s-2.5-5.6-5.6-5.6-5.6,2.5-5.6,5.6,2.5,5.6,5.6,5.6ZM24.7,15.9c1.7,0,3.1,1.4,3.1,3.1s-1.4,3.1-3.1,3.1-3.1-1.4-3.1-3.1,1.4-3.1,3.1-3.1Z"/>
      <path d="M14.4,22.5c0-2.5-2.1-4.6-4.6-4.6s-4.6,2-4.6,4.6,2,4.6,4.6,4.6,4.6-2,4.6-4.6ZM9.8,24.6c-1.1,0-2.1-.9-2.1-2.1s.9-2.1,2.1-2.1,2.1.9,2.1,2.1-.9,2.1-2.1,2.1Z"/>
      <path d="M39.5,27.1c2.5,0,4.6-2,4.6-4.6s-2-4.6-4.6-4.6-4.6,2-4.6,4.6,2,4.6,4.6,4.6ZM39.5,20.5c1.1,0,2.1.9,2.1,2.1s-.9,2.1-2.1,2.1-2.1-.9-2.1-2.1.9-2.1,2.1-2.1Z"/>
    </g>
  </g>
</svg>